HIERARCHY
ROOT hip
{
  OFFSET 0 0 0
  CHANNELS 6 Xposition Yposition Zposition Zrotation Yrotation Xrotation
  JOINT abdomen
  {
    OFFSET 0 20.6881 -0.73152
    CHANNELS 3 Zrotation Xrotation Yrotation
    JOINT chest
    {
      OFFSET 0 11.7043 -0.48768
      CHANNELS 3 Zrotation Xrotation Yrotation
      JOINT neck
      {
        OFFSET 0 22.1894 -2.19456
        CHANNELS 3 Zrotation Xrotation Yrotation
        JOINT head
        {
          OFFSET -0.24384 7.07133 1.2192
          CHANNELS 3 Zrotation Xrotation Yrotation
          JOINT leftEye
          {
            OFFSET 4.14528 8.04674 8.04672
            CHANNELS 3 Zrotation Xrotation Yrotation
            End Site
            {
              OFFSET 1 0 0
            }
          }
          JOINT rightEye
          {
            OFFSET -3.6576 8.04674 8.04672
            CHANNELS 3 Zrotation Xrotation Yrotation
            End Site
            {
              OFFSET 1 0 0
            }
          }
        }
      }
      JOINT rCollar
      {
        OFFSET -2.68224 19.2634 -4.8768
        CHANNELS 3 Zrotation Xrotation Yrotation
        JOINT rShldr
        {
          OFFSET -8.77824 -1.95073 1.46304
          CHANNELS 3 Zrotation Xrotation Yrotation
          JOINT rForeArm
          {
            OFFSET -28.1742 -1.7115 0.48768
            CHANNELS 3 Zrotation Xrotation Yrotation
            JOINT rHand
            {
              OFFSET -22.5879 0.773209 7.07136
              CHANNELS 3 Zrotation Xrotation Yrotation
              JOINT rThumb1
              {
                OFFSET -1.2192 -0.487915 3.41376
                CHANNELS 3 Zrotation Xrotation Yrotation
                JOINT rThumb2
                {
                  OFFSET -3.37035 -0.52449 3.41376
                  CHANNELS 3 Zrotation Xrotation Yrotation
                  End Site
                  {
                    OFFSET -1.78271 -1.18214 1.43049
                  }
                }
              }
              JOINT rIndex1
              {
                OFFSET -7.75947 0.938293 5.60832
                CHANNELS 3 Zrotation Xrotation Yrotation
                JOINT rIndex2
                {
                  OFFSET -2.54057 -0.884171 1.56538
                  CHANNELS 3 Zrotation Xrotation Yrotation
                  End Site
                  {
                    OFFSET -1.62519 -0.234802 1.16502
                  }
                }
              }
              JOINT rMid1
              {
                OFFSET -8.24714 1.18213 3.41376
                CHANNELS 3 Zrotation Xrotation Yrotation
                JOINT rMid2
                {
                  OFFSET -3.10165 -0.590103 1.0647
                  CHANNELS 3 Zrotation Xrotation Yrotation
                  End Site
                  {
                    OFFSET -2.48547 -0.328903 0.83742
                  }
                }
              }
              JOINT rRing1
              {
                OFFSET -8.82822 0.546677 1.51678
                CHANNELS 3 Zrotation Xrotation Yrotation
                JOINT rRing2
                {
                  OFFSET -2.60934 -0.819778 -0.0198488
                  CHANNELS 3 Zrotation Xrotation Yrotation
                  End Site
                  {
                    OFFSET -2.33842 -0.294052 0.168128
                  }
                }
              }
              JOINT rPinky1
              {
                OFFSET -8.27202 -0.0477905 -0.4584
                CHANNELS 3 Zrotation Xrotation Yrotation
                JOINT rPinky2
                {
                  OFFSET -1.82734 -0.647385 -0.700984
                  CHANNELS 3 Zrotation Xrotation Yrotation
                  End Site
                  {
                    OFFSET -1.69225 -0.51767 -0.607171
                  }
                }
              }
            }
          }
        }
      }
      JOINT lCollar
      {
        OFFSET 2.68224 19.2634 -4.8768
        CHANNELS 3 Zrotation Xrotation Yrotation
        JOINT lShldr
        {
          OFFSET 8.77824 -1.95073 1.46304
          CHANNELS 3 Zrotation Xrotation Yrotation
          JOINT lForeArm
          {
            OFFSET 28.1742 -1.7115 0.48768
            CHANNELS 3 Zrotation Xrotation Yrotation
            JOINT lHand
            {
              OFFSET 22.5879 0.773209 7.07136
              CHANNELS 3 Zrotation Xrotation Yrotation
              JOINT lThumb1
              {
                OFFSET 1.2192 -0.487915 3.41376
                CHANNELS 3 Zrotation Xrotation Yrotation
                JOINT lThumb2
                {
                  OFFSET 3.37035 -0.52449 3.41376
                  CHANNELS 3 Zrotation Xrotation Yrotation
                  End Site
                  {
                    OFFSET 1.78271 -1.18214 1.43049
                  }
                }
              }
              JOINT lIndex1
              {
                OFFSET 7.75947 0.938293 5.60832
                CHANNELS 3 Zrotation Xrotation Yrotation
                JOINT lIndex2
                {
                  OFFSET 2.54057 -0.884171 1.56538
                  CHANNELS 3 Zrotation Xrotation Yrotation
                  End Site
                  {
                    OFFSET 1.62519 -0.234802 1.16502
                  }
                }
              }
              JOINT lMid1
              {
                OFFSET 8.24714 1.18213 3.41376
                CHANNELS 3 Zrotation Xrotation Yrotation
                JOINT lMid2
                {
                  OFFSET 3.10165 -0.590103 1.0647
                  CHANNELS 3 Zrotation Xrotation Yrotation
                  End Site
                  {
                    OFFSET 2.48547 -0.328903 0.83742
                  }
                }
              }
              JOINT lRing1
              {
                OFFSET 8.82822 0.546677 1.51678
                CHANNELS 3 Zrotation Xrotation Yrotation
                JOINT lRing2
                {
                  OFFSET 2.60934 -0.819778 -0.0198488
                  CHANNELS 3 Zrotation Xrotation Yrotation
                  End Site
                  {
                    OFFSET 2.33842 -0.294052 0.168128
                  }
                }
              }
              JOINT lPinky1
              {
                OFFSET 8.27202 -0.0477905 -0.4584
                CHANNELS 3 Zrotation Xrotation Yrotation
                JOINT lPinky2
                {
                  OFFSET 1.82734 -0.647385 -0.700984
                  CHANNELS 3 Zrotation Xrotation Yrotation
                  End Site
                  {
                    OFFSET 1.69225 -0.51767 -0.607171
                  }
                }
              }
            }
          }
        }
      }
    }
  }
  JOINT rButtock
  {
    OFFSET -8.77824 4.35084 1.2192
    CHANNELS 3 Zrotation Xrotation Yrotation
    JOINT rThigh
    {
      OFFSET 0 -1.70687 -2.19456
      CHANNELS 3 Zrotation Xrotation Yrotation
      JOINT rShin
      {
        OFFSET 0 -36.8199 0.73152
        CHANNELS 3 Zrotation Xrotation Yrotation
        JOINT rFoot
        {
          OFFSET 0.73152 -45.1104 -5.12064
          CHANNELS 3 Zrotation Xrotation Yrotation
          End Site
          {
            OFFSET -1.1221 -3.69964 12.103
          }
        }
      }
    }
  }
  JOINT lButtock
  {
    OFFSET 8.77824 4.35084 1.2192
    CHANNELS 3 Zrotation Xrotation Yrotation
    JOINT lThigh
    {
      OFFSET 0 -1.70687 -2.19456
      CHANNELS 3 Zrotation Xrotation Yrotation
      JOINT lShin
      {
        OFFSET 0 -36.8199 0.73152
        CHANNELS 3 Zrotation Xrotation Yrotation
        JOINT lFoot
        {
          OFFSET -0.73152 -45.1104 -5.12064
          CHANNELS 3 Zrotation Xrotation Yrotation
          End Site
          {
            OFFSET 1.1221 -3.69964 12.103
          }
        }
      }
    }
  }
}
MOTION
Frames:	8
Frame Time:	0.00833333
27.8548 85.1237 8.41396 0.0 0.0 0.0 0.435996 -0.0238418 0.0128209 0.121281 -0.0396098 0.0210503 6.75254e-16 7.95139e-16 -1.67725e-16 2.05928e-15 9.54166e-15 -5.14045e-16 -0.0 0.0 0.0 -0.0 0.0 0.0 4.46876e-16 1.61124e-16 4.96962e-17 8.65364e-15 3.87009e-15 -9.93923e-16 1.48989e-13 1.00585e-13 -4.13472e-14 1.42587e-12 7.29043e-13 -3.40319e-13 3.41315e-12 1.79594e-12 -8.07861e-13 5.87806e-12 3.1074e-12 -1.3899e-12 3.41671e-12 1.79701e-12 -8.14222e-13 7.73091 5.47488 0.417314 3.41249e-12 1.79552e-12 -8.015e-13 2.90554 0.965183 0.102902 3.41825e-12 1.79552e-12 -8.05475e-13 10.2786 0.731801 0.0259123 3.40399e-12 1.7998e-12 -7.98319e-13 2.22167 -0.733487 -0.20892 2.48892e-16 1.61124e-16 -2.48481e-16 6.06449e-15 4.08751e-15 -2.5842e-15 1.0625e-13 1.7334e-13 -5.08889e-14 1.46251e-12 6.51716e-13 -3.11694e-13 3.40849e-12 1.78541e-12 -8.0468e-13 5.9047e-12 3.07878e-12 -1.38434e-12 3.40478e-12 1.7823e-12 -8.015e-13 -7.73091 5.47488 -0.417314 3.41045e-12 1.78479e-12 -8.0468e-13 -2.90554 0.965183 -0.102902 3.40361e-12 1.78548e-12 -8.0309e-13 -10.2786 0.731801 -0.0259123 3.41552e-12 1.78946e-12 -8.07861e-13 -2.22167 -0.733487 0.20892 -2.03217e-16 0.0 -3.88251e-19 0.652217 -4.71095 -0.0694844 -0.000845542 2.99779 0.00380403 -0.32659 1.72337 0.0698172 2.03217e-16 0.0 3.88251e-19 0.0355324 -2.68009 0.0231022 0.0057793 -0.680054 0.0504033 0.293787 3.37034 -0.0963444
18.0759 84.2098 -1.99051 -112.369 -85.729 116.222 2.19447 -1.11731 0.955566 0.761449 -3.88695 0.356971 -1.65839 1.64216 -0.777862 -0.89901 2.81825 -1.66137 -0.0 0.0 0.0 -0.0 0.0 0.0 -3.55601e-14 -6.21393e-13 4.35657e-15 8.96245 20.2534 4.99076 -12.8627 -9.87343 13.8369 0.0841849 6.46371 0.887915 1.35111e-10 -2.327e-10 1.98308e-10 2.37315e-10 -4.04166e-10 3.39025e-10 1.35113e-10 -2.32698e-10 1.98299e-10 7.73091 5.47488 0.417314 1.35109e-10 -2.32698e-10 1.98313e-10 2.90554 0.965183 0.102902 1.35115e-10 -2.32698e-10 1.98311e-10 10.2786 0.731801 0.0259123 1.35103e-10 -2.32695e-10 1.9832e-10 2.22167 -0.733487 -0.20892 -3.57167e-14 -6.21396e-13 4.0549e-15 -9.7176 17.3809 -5.60843 9.93462 -6.79202 -12.2731 -0.0077056 3.05494 -0.431027 4.59176e-11 2.21413e-10 -2.06828e-10 7.64796e-11 3.82372e-10 -3.57344e-10 4.59134e-11 2.2141e-10 -2.06822e-10 -7.73091 5.47488 -0.417314 4.59194e-11 2.21412e-10 -2.06826e-10 -2.90554 0.965183 -0.102902 4.5913e-11 2.21412e-10 -2.06825e-10 -10.2786 0.731801 -0.0259123 4.59237e-11 2.21416e-10 -2.06829e-10 -2.22167 -0.733487 0.20892 -2.03217e-16 0.0 -3.88251e-19 4.88153 -3.48162 8.95178 -0.0188797 4.19394 -0.106393 -1.60787 -12.1704 -8.72312 2.03217e-16 0.0 3.88251e-19 1.01665 -0.627454 -9.26432 -0.00983589 -0.856934 -0.0945701 0.555549 -8.64374 0.660937
18.0159 84.2255 -2.02751 -112.637 -85.6154 116.3 4.09728 -2.26592 1.96025 1.47899 -7.9536 0.718371 -3.37108 3.37356 -1.61 -1.66961 5.78516 -3.44375 -0.0 0.0 0.0 -0.0 0.0 0.0 -7.6947e-14 -1.35036e-12 1.00604e-14 13.7528 41.3061 12.7129 -21.1771 -18.2412 29.6281 -0.0500057 13.2316 1.85671 2.95984e-10 -5.01386e-10 4.1635e-10 5.19514e-10 -8.70514e-10 7.11449e-10 2.95984e-10 -5.01382e-10 4.16338e-10 7.73091 5.47488 0.417314 2.95981e-10 -5.01381e-10 4.16353e-10 2.90554 0.965183 0.102902 2.95985e-10 -5.01381e-10 4.16352e-10 10.2786 0.731801 0.0259123 2.95978e-10 -5.01378e-10 4.16364e-10 2.22167 -0.733487 -0.20892 -7.70602e-14 -1.35036e-12 9.75287e-15 -15.7933 35.3616 -13.4735 17.2482 -12.8492 -25.7121 0.0411408 6.00687 -0.854425 8.81309e-11 4.62703e-10 -4.43224e-10 1.46012e-10 7.99055e-10 -7.65668e-10 8.81261e-11 4.627e-10 -4.43215e-10 -7.73091 5.47488 -0.417314 8.81325e-11 4.62701e-10 -4.4322e-10 -2.90554 0.965183 -0.102902 8.81268e-11 4.62701e-10 -4.43218e-10 -10.2786 0.731801 -0.0259123 8.81361e-11 4.62704e-10 -4.43222e-10 -2.22167 -0.733487 0.20892 -2.03217e-16 0.0 -3.88251e-19 8.9463 -2.14373 18.5054 -0.0330459 5.45436 -0.224381 -7.99322 -25.8315 -19.6479 2.03217e-16 0.0 3.88251e-19 2.76255 1.43837 -19.1004 -0.0273738 -1.04726 -0.248322 1.20404 -21.3478 1.56339
17.9358 84.2357 -2.05306 -112.118 -85.5326 115.635 5.81947 -3.30065 2.84524 2.17955 -11.58 1.04768 -4.84101 4.92285 -2.34127 -2.20286 8.42616 -5.03253 -0.0 0.0 0.0 -0.0 0.0 0.0 -1.07574e-13 -1.8645e-12 1.29703e-14 8.46219 58.0217 27.2725 -24.7692 -22.5552 45.1325 -0.378889 19.3719 2.80578 3.98507e-10 -7.01693e-10 5.96541e-10 7.00189e-10 -1.21871e-09 1.01985e-09 3.98506e-10 -7.01688e-10 5.96527e-10 7.73091 5.47488 0.417314 3.98503e-10 -7.01685e-10 5.96542e-10 2.90554 0.965183 0.102902 3.98507e-10 -7.01685e-10 5.96543e-10 10.2786 0.731801 0.0259123 3.98502e-10 -7.01683e-10 5.96556e-10 2.22167 -0.733487 -0.20892 -1.07648e-13 -1.86451e-12 1.26617e-14 -14.4539 49.567 -25.2404 21.4452 -16.6111 -38.4303 0.116279 9.16273 -1.30794 1.30936e-10 6.60668e-10 -6.18875e-10 2.1763e-10 1.14096e-09 -1.06926e-09 1.30931e-10 6.60665e-10 -6.18864e-10 -7.73091 5.47488 -0.417314 1.30937e-10 6.60666e-10 -6.1887e-10 -2.90554 0.965183 -0.102902 1.30932e-10 6.60666e-10 -6.18868e-10 -10.2786 0.731801 -0.0259123 1.3094e-10 6.60668e-10 -6.18872e-10 -2.22167 -0.733487 0.20892 -2.03217e-16 0.0 -3.88251e-19 12.2063 -1.02643 26.9485 -0.0410575 6.58614 -0.328088 -18.8671 -35.7038 -32.2998 2.03217e-16 0.0 3.88251e-19 4.90201 3.05296 -27.8804 -0.0437521 -1.21067 -0.384564 2.17237 -32.6477 2.55682
17.8833 84.2402 -2.06073 -111.983 -85.5029 115.431 7.01351 -4.05417 3.42703 2.73885 -14.1073 1.27876 -5.80053 6.02049 -2.81293 -2.49765 10.2805 -6.09069 -0.0 0.0 0.0 -0.0 0.0 0.0 -1.11301e-13 -1.84159e-12 8.89561e-15 -7.44749 65.6454 47.8807 -25.9492 -23.3051 56.5562 -0.760079 23.9605 3.58084 3.55157e-10 -7.3105e-10 6.82105e-10 6.27054e-10 -1.27153e-09 1.16822e-09 3.55155e-10 -7.31045e-10 6.82089e-10 7.73091 5.47488 0.417314 3.55152e-10 -7.31042e-10 6.82105e-10 2.90554 0.965183 0.102902 3.55156e-10 -7.31041e-10 6.82107e-10 10.2786 0.731801 0.0259123 3.55152e-10 -7.3104e-10 6.82121e-10 2.22167 -0.733487 -0.20892 -1.11345e-13 -1.8416e-12 8.59744e-15 -6.90722 56.6179 -38.2259 23.4356 -18.0785 -47.8707 0.206205 12.8288 -1.83404 1.7522e-10 7.50321e-10 -6.42666e-10 2.94462e-10 1.29591e-09 -1.11103e-09 1.75214e-10 7.50319e-10 -6.42653e-10 -7.73091 5.47488 -0.417314 1.75221e-10 7.5032e-10 -6.4266e-10 -2.90554 0.965183 -0.102902 1.75216e-10 7.5032e-10 -6.42658e-10 -10.2786 0.731801 -0.0259123 1.75223e-10 7.50321e-10 -6.42663e-10 -2.22167 -0.733487 0.20892 -2.03217e-16 0.0 -3.88251e-19 14.2716 -0.361741 32.6342 -0.0436524 7.39639 -0.395021 -29.3468 -40.2971 -42.9947 2.03217e-16 0.0 3.88251e-19 6.69468 3.99773 -33.9567 -0.0552416 -1.30681 -0.476992 3.10344 -40.4622 3.39697
17.8505 84.2437 -2.07252 -112.844 -85.4699 116.253 7.43425 -4.43489 3.57054 3.07195 -15.0943 1.35774 -6.10069 6.5115 -2.91211 -2.62572 11.0333 -6.36598 -0.0 0.0 0.0 -0.0 0.0 0.0 -6.70251e-14 -8.9701e-13 -7.06229e-15 -16.8336 65.1509 57.0213 -26.4624 -23.4632 61.8483 -0.997246 26.3896 4.01664 7.2527e-11 -5.04697e-10 6.57394e-10 1.38619e-10 -8.83051e-10 1.13154e-09 7.25262e-11 -5.04691e-10 6.57376e-10 7.73091 5.47488 0.417314 7.25226e-11 -5.04688e-10 6.57394e-10 2.90554 0.965183 0.102902 7.2526e-11 -5.04687e-10 6.57395e-10 10.2786 0.731801 0.0259123 7.25227e-11 -5.04686e-10 6.57408e-10 2.22167 -0.733487 -0.20892 -6.70526e-14 -8.97018e-13 -7.32552e-15 -1.44894 56.9107 -43.5123 24.2598 -18.6864 -52.3453 0.345918 17.4404 -2.51237 2.17191e-10 6.69741e-10 -4.67237e-10 3.70157e-10 1.15702e-09 -8.08946e-10 2.17187e-10 6.69741e-10 -4.67224e-10 -7.73091 5.47488 -0.417314 2.17194e-10 6.69742e-10 -4.67231e-10 -2.90554 0.965183 -0.102902 2.17187e-10 6.69742e-10 -4.6723e-10 -10.2786 0.731801 -0.0259123 2.17193e-10 6.69742e-10 -4.67236e-10 -2.22167 -0.733487 0.20892 -2.03217e-16 0.0 -3.88251e-19 14.9981 -0.214064 34.4394 -0.0431222 7.75674 -0.409743 -33.3739 -41.0731 -47.0683 2.03217e-16 0.0 3.88251e-19 7.48009 4.34743 -36.2028 -0.0590216 -1.30998 -0.507886 3.42357 -43.4185 3.62732
17.8046 84.2448 -2.1021 -113.78 -85.3919 117.149 7.2943 -4.54909 3.40067 3.23205 -14.9816 1.32444 -5.93876 6.5687 -2.74395 -2.66958 11.0051 -6.07328 -0.0 0.0 0.0 -0.0 0.0 0.0 1.10454e-14 6.97811e-13 -3.1408e-14 -16.5521 61.1774 53.4833 -26.7651 -24.4734 63.0445 -1.06547 27.281 4.17408 -3.79347e-10 -9.64739e-11 5.52857e-10 -6.43604e-10 -1.8067e-10 9.60832e-10 -3.79345e-10 -9.64683e-11 5.52838e-10 7.73091 5.47488 0.417314 -3.7935e-10 -9.64652e-11 5.52858e-10 2.90554 0.965183 0.102902 -3.79347e-10 -9.64644e-11 5.52857e-10 10.2786 0.731801 0.0259123 -3.79352e-10 -9.64631e-11 5.52869e-10 2.22167 -0.733487 -0.20892 1.10266e-14 6.97805e-13 -3.16192e-14 0.0249856 53.5323 -41.2111 24.5828 -19.404 -53.2799 0.608804 22.7105 -3.3429 2.5772e-10 4.68451e-10 -1.48871e-10 4.45442e-10 8.09766e-10 -2.60166e-10 2.57718e-10 4.68454e-10 -1.48859e-10 -7.73091 5.47488 -0.417314 2.57723e-10 4.68455e-10 -1.48867e-10 -2.90554 0.965183 -0.102902 2.57715e-10 4.68455e-10 -1.48867e-10 -10.2786 0.731801 -0.0259123 2.5772e-10 4.68454e-10 -1.48875e-10 -2.22167 -0.733487 0.20892 -2.03217e-16 0.0 -3.88251e-19 14.8266 -0.403149 33.4724 -0.0413509 7.79574 -0.387013 -31.7158 -40.1664 -45.7555 2.03217e-16 0.0 3.88251e-19 7.43652 4.37217 -35.7028 -0.0571609 -1.24668 -0.494832 3.15122 -42.9108 3.29406
17.7531 84.2468 -2.13696 -114.78 -85.2901 118.08 6.9294 -4.52706 3.12311 3.29596 -14.4332 1.24919 -5.57149 6.4151 -2.47508 -2.66488 10.6952 -5.56565 -0.0 0.0 0.0 -0.0 0.0 0.0 8.60865e-14 2.28108e-12 -5.57412e-14 -14.3242 55.5507 47.0815 -27.0034 -25.9582 62.5263 -1.05391 27.5579 4.21302 -8.4283e-10 3.58286e-10 3.80867e-10 -1.4474e-09 6.02818e-10 6.74074e-10 -8.42825e-10 3.58291e-10 3.80847e-10 7.73091 5.47488 0.417314 -8.42832e-10 3.58293e-10 3.8087e-10 2.90554 0.965183 0.102902 -8.42829e-10 3.58294e-10 3.80867e-10 10.2786 0.731801 0.0259123 -8.42835e-10 3.58296e-10 3.80876e-10 2.22167 -0.733487 -0.20892 8.60691e-14 2.28108e-12 -5.59066e-14 0.420017 48.2862 -36.6876 24.7352 -20.2372 -52.7025 1.00703 27.8634 -4.23935 3.04684e-10 2.48634e-10 2.48086e-10 5.34063e-10 4.30547e-10 4.23605e-10 3.04683e-10 2.48639e-10 2.48097e-10 -7.73091 5.47488 -0.417314 3.04688e-10 2.48639e-10 2.48088e-10 -2.90554 0.965183 -0.102902 3.04678e-10 2.4864e-10 2.48087e-10 -10.2786 0.731801 -0.0259123 3.04683e-10 2.48638e-10 2.48078e-10 -2.22167 -0.733487 0.20892 -2.03217e-16 0.0 -3.88251e-19 14.2765 -0.724332 31.4239 -0.0390093 7.70587 -0.349476 -28.0006 -38.5132 -42.4539 2.03217e-16 0.0 3.88251e-19 7.05344 4.26921 -34.1058 -0.0531343 -1.15489 -0.46448 2.69035 -41.0177 2.77995
